<svg width="20" height="20" viewBox="0 0 20 20" fill="none" xmlns="http://www.w3.org/2000/svg">
<g clip-path="url(#clip0_4795_7944)">
<path d="M10 8.49083V11.6667" stroke="black" stroke-width="1.66667" stroke-linecap="round" stroke-linejoin="round"/>
<path d="M10 1.66667V4.16667" stroke="black" stroke-width="1.66667" stroke-linecap="round" stroke-linejoin="round"/>
<path d="M15.8333 10.8333V5.83334C15.8333 5.39131 15.6577 4.96739 15.3452 4.65483C15.0326 4.34227 14.6087 4.16667 14.1667 4.16667H5.83333C5.39131 4.16667 4.96738 4.34227 4.65482 4.65483C4.34226 4.96739 4.16667 5.39131 4.16667 5.83334V10.8333" stroke="black" stroke-width="1.66667" stroke-linecap="round" stroke-linejoin="round"/>
<path d="M16.15 16.6667C17.0464 15.1538 17.5132 13.4251 17.5 11.6667L10.6767 8.63418C10.4636 8.53953 10.2331 8.49063 10 8.49063C9.76689 8.49063 9.53637 8.53953 9.32333 8.63418L2.5 11.6667C2.46142 14.0364 3.29476 16.3377 4.84167 18.1333" stroke="black" stroke-width="1.66667" stroke-linecap="round" stroke-linejoin="round"/>
<path d="M1.66667 17.5C2.16667 17.9167 2.66667 18.3333 3.75 18.3333C5.83333 18.3333 5.83333 16.6667 7.91667 16.6667C9 16.6667 9.5 17.0833 10 17.5C10.5 17.9167 11 18.3333 12.0833 18.3333C14.1667 18.3333 14.1667 16.6667 16.25 16.6667C17.3333 16.6667 17.8333 17.0833 18.3333 17.5" stroke="black" stroke-width="1.66667" stroke-linecap="round" stroke-linejoin="round"/>
</g>
<defs>
<clipPath id="clip0_4795_7944">
<rect width="20" height="20" fill="white"/>
</clipPath>
</defs>
</svg>
