<svg width="15" height="19" viewBox="0 0 15 19" fill="none" xmlns="http://www.w3.org/2000/svg">
<path d="M14.1667 10.0004C14.1667 14.1671 11.25 16.2504 7.78333 17.4587C7.6018 17.5202 7.40461 17.5173 7.225 17.4504C3.75 16.2504 0.833332 14.1671 0.833332 10.0004V4.16705C0.833332 3.94604 0.92113 3.73408 1.07741 3.5778C1.23369 3.42152 1.44565 3.33372 1.66667 3.33372C3.33333 3.33372 5.41667 2.33372 6.86667 1.06705C7.04321 0.916217 7.26779 0.833344 7.5 0.833344C7.7322 0.833344 7.95679 0.916217 8.13333 1.06705C9.59167 2.34205 11.6667 3.33372 13.3333 3.33372C13.5543 3.33372 13.7663 3.42152 13.9226 3.5778C14.0789 3.73408 14.1667 3.94604 14.1667 4.16705V10.0004Z" stroke="black" stroke-width="1.66667" stroke-linecap="round" stroke-linejoin="round"/>
</svg>
