<?xml version="1.0" encoding="UTF-8"?>
<!-- Generator: https://ezgif.com/webp-to-svg -->
<svg version="1.1" xmlns="http://www.w3.org/2000/svg" width="89" height="89">
<path d="M0 0 C1.44 1.04 2.85 2.1 4.25 3.19 C4.87 3.67 5.48 4.14 6.12 4.64 C12.81 10.54 18.64 21.2 19.43 30.21 C19.84 44.69 18.42 55.45 9.25 67.19 C8.77 67.8 8.29 68.42 7.8 69.05 C1.89 75.75 -8.76 81.58 -17.77 82.36 C-32.25 82.78 -43.01 81.36 -54.75 72.19 C-55.37 71.71 -55.98 71.23 -56.62 70.74 C-63.31 64.83 -69.14 54.18 -69.93 45.16 C-70.34 30.69 -68.92 19.93 -59.75 8.19 C-59.27 7.57 -58.79 6.96 -58.3 6.32 C-43.77 -10.15 -17.71 -11.05 0 0 Z M-55.56 10.81 C-62.42 18.91 -66.22 28.52 -65.75 39.19 C-64.19 52.3 -59.62 61.65 -49.52 70.21 C-40.7 76.52 -31.02 79.05 -20.3 77.78 C-7.44 75.45 1.61 69.87 9.25 59.19 C15.48 48.06 16.32 37.83 13.31 25.55 C9.98 15.01 2.96 6.94 -6.68 1.55 C-24.02 -6.3 -42.27 -2.81 -55.56 10.81 Z " fill="#FFFFFF" transform="translate(69.75,6.8125)"/>
<path d="M0 0 C3.73 -0.1 7.47 -0.21 11.31 -0.31 C12.49 -0.36 13.66 -0.4 14.87 -0.45 C16.26 -0.47 16.26 -0.47 17.68 -0.49 C18.62 -0.51 19.57 -0.54 20.55 -0.57 C23 0 23 0 24.83 2.41 C26 5 26 5 26 7 C26.66 7 27.32 7 28 7 C28.31 6.03 28.62 5.06 28.94 4.06 C30 1 30 1 31 0 C33.33 -0.04 35.67 -0.04 38 0 C36.92 3.82 35.47 6.99 33.44 10.38 C30.95 14.68 30.27 18.07 30 23 C28.02 23 26.04 23 24 23 C23.77 21.72 23.55 20.44 23.31 19.12 C22.11 13.61 19.69 8.92 17 4 C16.67 4.66 16.34 5.32 16 6 C13.03 6 10.06 6 7 6 C7 6.99 7 7.98 7 9 C9.64 9 12.28 9 15 9 C15 10.65 15 12.3 15 14 C12.36 14 9.72 14 7 14 C7 16.97 7 19.94 7 23 C4.69 23 2.38 23 0 23 C0 15.41 0 7.82 0 0 Z " fill="#FFFFFF" transform="translate(15,33)"/>
<path d="M0 0 C6.6 0 13.2 0 20 0 C20 1.98 20 3.96 20 6 C17.69 6 15.38 6 13 6 C13 11.61 13 17.22 13 23 C11.02 23 9.04 23 7 23 C7 17.39 7 11.78 7 6 C4.69 6 2.38 6 0 6 C0 4.02 0 2.04 0 0 Z " fill="#FFFFFF" transform="translate(54,33)"/>
</svg>
